<!-- Generated by IcoMoon.io -->
<svg version="1.1" xmlns="http://www.w3.org/2000/svg" width="35" height="20" viewBox="0 0 35 20">
<title>icon-email-3</title>
<path fill="#c4c4c4" d="M35 1.25c0-0.75-0.5-1.25-1.25-1.25h-32.5c-0.75 0-1.25 0.5-1.25 1.25v17.5c0 0.75 0.5 1.25 1.25 1.25h32.5c0.75 0 1.25-0.5 1.25-1.25v-17.5zM31.75 5l-13.5 7.25c0 0 0 0 0 0v0c0 0 0 0-0.25 0-0.25 0.25-0.25 0.25-0.5 0.25 0 0 0 0 0 0s0 0 0 0c-0.25 0-0.25 0-0.5 0 0 0 0 0-0.25 0v0c0 0 0 0 0 0l-13.5-7.5c-0.75-0.25-1-1-0.5-1.75 0.25-0.5 1-0.75 1.5-0.5l13.25 7 13.25-7c0.5-0.25 1.25 0 1.75 0.5 0.25 0.75 0 1.5-0.75 1.75z"></path>
</svg>
