<!-- Generated by IcoMoon.io -->
<svg version="1.1" xmlns="http://www.w3.org/2000/svg" width="20" height="20" viewBox="0 0 20 20">
<title>icon-archive</title>
<path fill="#a8aaad" d="M9.429 7.143v2.857h-2.857l3.571 5.714 3.571-5.714h-2.857v-2.857z"></path>
<path fill="#a8aaad" d="M19.286 2.857h-9.286v-2.143c0-0.429-0.286-0.714-0.714-0.714h-8.571c-0.429 0-0.714 0.286-0.714 0.714v18.571c0 0.429 0.286 0.714 0.714 0.714h18.571c0.429 0 0.714-0.286 0.714-0.714v-15.714c0-0.429-0.286-0.714-0.714-0.714zM18.571 18.571h-17.143v-14.286h7.857c0 0 0 0 0 0h9.286v14.286z"></path>
</svg>
