<!-- Generated by IcoMoon.io -->
<svg version="1.1" xmlns="http://www.w3.org/2000/svg" width="20" height="20" viewBox="0 0 20 20">
<title>icon-search</title>
<path d="M19.846 18.769l-5.077-4.923c2.769-3.231 2.769-8.308-0.462-11.385-1.538-1.692-3.692-2.462-5.846-2.462s-4.308 0.769-6 2.462c-3.231 3.231-3.231 8.615 0 11.846 1.692 1.692 3.846 2.462 6 2.462 1.846 0 3.692-0.615 5.231-1.846l4.923 4.923c0.308 0.308 0.769 0.308 1.077 0s0.308-0.923 0.154-1.077zM3.538 13.231c-1.231-1.231-2-3.077-2-4.923s0.769-3.538 2-4.769c1.385-1.231 3.077-2 4.923-2s3.538 0.769 4.923 2c1.231 1.231 2 3.077 2 4.769 0 1.846-0.769 3.538-2 4.769s-3.077 2-4.923 2c-1.846 0.154-3.538-0.615-4.923-1.846z"></path>
</svg>
