<!-- Generated by IcoMoon.io -->
<svg version="1.1" xmlns="http://www.w3.org/2000/svg" width="20" height="20" viewBox="0 0 20 20">
<title>icon-email-2</title>
<path fill="#c4c4c4" d="M20 0.714c0-0.429-0.286-0.714-0.714-0.714h-18.571c-0.429 0-0.714 0.286-0.714 0.714v18.571c0 0.429 0.286 0.714 0.714 0.714h18.571c0.429 0 0.714-0.286 0.714-0.714v-18.571zM16.143 3.857l-5.714 3.429c0 0 0 0 0 0-0.143 0.143-0.286 0.143-0.429 0.143 0 0 0 0 0 0v0 0c0 0 0 0 0 0-0.143 0-0.286 0-0.286-0.143 0 0 0 0 0 0l-5.714-3.429c-0.429-0.143-0.571-0.571-0.286-1 0.143-0.286 0.571-0.429 1-0.143l5.286 3.143 5.286-3.286c0.429-0.143 0.857 0 1 0.286 0.286 0.429 0.143 0.857-0.143 1z"></path>
</svg>
