<!-- Generated by IcoMoon.io -->
<svg version="1.1" xmlns="http://www.w3.org/2000/svg" width="20" height="20" viewBox="0 0 20 20">
<title>icon-approval-2</title>
<path fill="#c4c4c4" d="M15.714 12.286l-1.857 2.143-1.143-0.857-1 1.143 1.571 1.429c0.286 0.286 0.714 0.143 1-0.143l2.286-2.714-0.857-1z"></path>
<path fill="#c4c4c4" d="M12.143 0h-11.429c-0.429 0-0.714 0.286-0.714 0.714v11.429c0 0.429 0.286 0.714 0.714 0.714h11.429c0.429 0 0.714-0.286 0.714-0.714v-11.429c0-0.429-0.286-0.714-0.714-0.714zM9 8l-1 1-1.571-1.571-1.571 1.571-1-1 1.571-1.571-1.571-1.571 1-1 1.571 1.571 1.571-1.571 1 1-1.571 1.571 1.571 1.571z"></path>
<path fill="#c4c4c4" d="M19.286 8.571h-5v1.429h4.286v8.571h-8.571v-4.286h-1.429v5c0 0.429 0.286 0.714 0.714 0.714h10c0.429 0 0.714-0.286 0.714-0.714v-10c0-0.429-0.286-0.714-0.714-0.714z"></path>
</svg>
