<!-- Generated by IcoMoon.io -->
<svg version="1.1" xmlns="http://www.w3.org/2000/svg" width="16" height="20" viewBox="0 0 16 20" fill="#666">
<title>icon-add-member</title>
<path d="M5.714 10c0.857 0 1.429 0.571 1.429 1.429s-0.571 1.429-1.429 1.429-1.429-0.571-1.429-1.429 0.571-1.429 1.429-1.429zM5.714 8.571c-1.571 0-2.857 1.286-2.857 2.857s1.286 2.857 2.857 2.857 2.857-1.286 2.857-2.857-1.286-2.857-2.857-2.857v0z"></path>
<path d="M5.714 15.857c2.286 0 4.143 1.857 4.143 4.143h1.571c0-3.143-2.571-5.714-5.714-5.714s-5.714 2.571-5.714 5.714h1.571c0-2.286 1.857-4.143 4.143-4.143z"></path>
<path d="M15.714 2.857h-2.857v-2.857h-1.429v2.857h-2.857v1.429h2.857v2.857h1.429v-2.857h2.857z"></path>
</svg>
