<!-- Generated by IcoMoon.io -->
<svg version="1.1" xmlns="http://www.w3.org/2000/svg" width="20" height="20" viewBox="0 0 20 20">
<title>icon-automation</title>
<path fill="#a8aaad" d="M18.571 1.429v17.143h-17.143v-17.143h17.143zM19.286 0h-18.571c-0.429 0-0.714 0.286-0.714 0.714v18.571c0 0.429 0.286 0.714 0.714 0.714h18.571c0.429 0 0.714-0.286 0.714-0.714v-18.571c0-0.429-0.286-0.714-0.714-0.714v0zM10 15v0c-1.143 0-2.143-0.286-3-0.857-0.286-0.286-0.286-0.714 0-1 0.143-0.429 0.571-0.429 1-0.286 0.571 0.429 1.286 0.714 2 0.714 0.429 0 0.714 0.286 0.714 0.714s-0.286 0.714-0.714 0.714zM13.429 13.143c-0.143 0-0.286 0-0.429-0.143-0.286-0.143-0.286-0.571-0.143-0.857 0.429-0.714 0.714-1.429 0.714-2.143 0-0.429 0.286-0.714 0.714-0.714s0.714 0.286 0.714 0.714v0c0 1-0.286 2-1 2.857-0.143 0.286-0.286 0.286-0.571 0.286zM5.714 10.714c-0.429 0-0.714-0.286-0.714-0.714v0c0-1 0.286-2.143 1-3 0.286-0.286 0.714-0.429 1-0.143s0.286 0.714 0.143 1c-0.429 0.714-0.714 1.429-0.714 2.143 0 0.429-0.286 0.714-0.714 0.714zM12.571 7.286c-0.143 0-0.429-0.143-0.429-0.143-0.714-0.429-1.429-0.714-2.143-0.714-0.429 0-0.714-0.286-0.714-0.714s0.286-0.714 0.714-0.714v0c1 0 2 0.286 2.857 1 0.286 0.286 0.429 0.714 0.143 1 0 0.143-0.286 0.286-0.429 0.286z"></path>
</svg>
