<!-- Generated by IcoMoon.io -->
<svg version="1.1" xmlns="http://www.w3.org/2000/svg" width="20" height="20" viewBox="0 0 20 20">
<title>icon-emoji</title>
<path fill="#c4c4c4" d="M10 1.429c4.714 0 8.571 3.857 8.571 8.571s-3.857 8.571-8.571 8.571-8.571-3.857-8.571-8.571 3.857-8.571 8.571-8.571zM10 0c-5.571 0-10 4.429-10 10s4.429 10 10 10c5.571 0 10-4.429 10-10s-4.429-10-10-10v0z"></path>
<path fill="#c4c4c4" d="M10 15.714c-3.143 0-4.143-1.571-4.286-1.857s0-0.714 0.286-0.857c0.286-0.143 0.714 0 1 0.286 0 0 0.714 1 3 1s2.857-1 2.857-1c0.143-0.429 0.571-0.571 1-0.286 0.286 0.143 0.429 0.571 0.286 0.857-0.143 0.143-1 1.857-4.143 1.857z"></path>
<path fill="#c4c4c4" d="M14.286 8.571c0 0.789-0.64 1.429-1.429 1.429s-1.429-0.64-1.429-1.429c0-0.789 0.64-1.429 1.429-1.429s1.429 0.64 1.429 1.429z"></path>
<path fill="#c4c4c4" d="M8.429 8.429c0 0.789-0.64 1.429-1.429 1.429s-1.429-0.64-1.429-1.429c0-0.789 0.64-1.429 1.429-1.429s1.429 0.64 1.429 1.429z"></path>
</svg>
