<!-- Generated by IcoMoon.io -->
<svg version="1.1" xmlns="http://www.w3.org/2000/svg" width="22" height="20" viewBox="0 0 22 20">
<title>icon-share-projects</title>
<path d="M10.769 4.615c0.923 0 1.538 0.615 1.538 1.538s-0.615 1.538-1.538 1.538-1.538-0.615-1.538-1.538 0.615-1.538 1.538-1.538zM10.769 3.077c-1.692 0-3.077 1.385-3.077 3.077s1.385 3.077 3.077 3.077 3.077-1.385 3.077-3.077-1.385-3.077-3.077-3.077v0zM10.769 10.923c2.462 0 4.462 1.385 4.462 4.462h1.692c0-3.077-2.769-6.154-6.154-6.154s-6.154 3.077-6.154 6.154h1.692c0-3.077 2-4.462 4.462-4.462z"></path>
<path d="M20.769 0h-2.308v1.538h1.538v16.923h-18.462v-16.923h1.538v-1.538h-2.308c-0.462 0-0.769 0.308-0.769 0.769v18.462c0 0.462 0.308 0.769 0.769 0.769h20c0.462 0 0.769-0.308 0.769-0.769v-18.462c0-0.462-0.308-0.769-0.769-0.769z"></path>
</svg>
