<!-- Generated by IcoMoon.io -->
<svg version="1.1" xmlns="http://www.w3.org/2000/svg" width="20" height="20" viewBox="0 0 20 20">
<title>icon-settings</title>
<path d="M19 8h-1.4c0 0-0.4-1.4-0.8-2l1-1c0.4-0.4 0.4-1 0-1.4l-1.4-1.4c-0.4-0.4-1-0.4-1.4 0l-1 1c-0.6-0.4-2-0.6-2-0.8v-1.4c0-0.6-0.4-1-1-1h-2c-0.6 0-1 0.4-1 1v1.4c0 0.2-1.4 0.4-2 0.8l-1-1c-0.4-0.4-1-0.4-1.4 0l-1.4 1.4c-0.4 0.4-0.4 1 0 1.4l1 1c-0.4 0.6-0.8 2-1 2h-1.2c-0.6 0-1 0.6-1 1v2c0 0.6 0.4 1 1 1h1.2c0.2 0 0.4 1.4 0.8 2l-0.8 1c-0.4 0.4-0.4 1 0 1.4l1.4 1.4c0.4 0.4 1 0.4 1.4 0l1-0.8c0.6 0.4 2 0.6 2 0.8v1.2c0 0.6 0.4 1 1 1h2c0.6 0 1-0.4 1-1v-1.2c0-0.2 1.4-0.4 2-0.8l0.8 0.8c0.4 0.4 1 0.4 1.4 0l1.4-1.4c0.4-0.4 0.4-1 0-1.4l-0.8-1c0.4-0.6 0.6-2 0.8-2h1.2c0.8 0 1.2-0.4 1.2-1v-2c0-0.4-0.4-1-1-1zM6.6 13.4c-1.8-1.8-1.8-5 0-6.8s5-1.8 6.8 0c1.8 1.8 1.8 5 0 6.8-2 2-5 2-6.8 0z"></path>
</svg>
