<!-- Generated by IcoMoon.io -->
<svg version="1.1" xmlns="http://www.w3.org/2000/svg" width="19" height="20" viewBox="0 0 19 20">
<title>icon-duplicate</title>
<path fill="#c4c4c4" d="M17.143 7.143v11.429h-7.143v-11.429h7.143zM17.857 5.714h-8.571c-0.429 0-0.714 0.286-0.714 0.714v12.857c0 0.429 0.286 0.714 0.714 0.714h8.571c0.429 0 0.714-0.286 0.714-0.714v-12.857c0-0.429-0.286-0.714-0.714-0.714v0zM9.286 0h-8.571c-0.429 0-0.714 0.286-0.714 0.714v12.857c0 0.429 0.286 0.714 0.714 0.714h6.429v-1.429h-5.714v-11.429h7.143v2.857h1.429v-3.571c0-0.429-0.286-0.714-0.714-0.714zM15.714 10h-4.286v1.429h4.286v-1.429zM15.714 12.857h-4.286v1.429h4.286v-1.429zM7.143 4.286h-4.286v1.429h4.286v-1.429zM7.143 7.143h-4.286v1.429h4.286v-1.429z"></path>
</svg>
