<!-- Generated by IcoMoon.io -->
<svg version="1.1" xmlns="http://www.w3.org/2000/svg" width="12" height="20" viewBox="0 0 12 20">
<title>icon-question-mark</title>
<path d="M7.097 8.065c1.29-0.806 2.419-1.613 2.419-3.226 0-1.452-1.129-2.742-3.387-2.742s-3.548 0.968-4.677 2.419l-1.452-1.613c1.452-1.774 3.548-2.903 6.29-2.903 3.548 0 5.645 1.935 5.645 4.516 0 2.419-1.774 3.71-3.226 4.677-1.29 0.806-2.419 1.613-2.419 2.903 0 0.484 0.323 0.968 0.806 1.452l-1.774 0.806c-0.806-0.806-1.129-1.613-1.129-2.419 0-1.935 1.452-2.903 2.903-3.871zM5.968 16.774c0.806 0 1.613 0.806 1.613 1.613s-0.806 1.613-1.613 1.613-1.613-0.806-1.613-1.613c0-0.968 0.806-1.613 1.613-1.613z"></path>
</svg>
