<!-- Generated by IcoMoon.io -->
<svg version="1.1" xmlns="http://www.w3.org/2000/svg" width="35" height="20" viewBox="0 0 35 20">
<title>icon-approval</title>
<path fill="#c4c4c4" d="M33.75 0h-32.5c-0.75 0-1.25 0.5-1.25 1.25v17.5c0 0.75 0.5 1.25 1.25 1.25h32.5c0.75 0 1.25-0.5 1.25-1.25v-17.5c0-0.75-0.5-1.25-1.25-1.25zM2.5 17.5v-15h15v15h-15zM25.25 12.75c-0.5 0.5-1.25 0.75-1.75 0.25l-2.75-2.5 1.75-2 2 1.5 3-3.5 2 1.5-4.25 4.75zM12 10l2.75 2.75-1.75 1.75-2.75-2.75-2.5 2.75-2-1.75 2.75-2.75-2.75-2.75 1.75-1.75 2.75 2.75 2.75-2.75 1.75 1.75-2.75 2.75z"></path>
</svg>
