<!-- Generated by IcoMoon.io -->
<svg version="1.1" xmlns="http://www.w3.org/2000/svg" width="20" height="20" viewBox="0 0 20 20">
<title>icon-back-to-video-tutorials</title>
<path fill="#c4c4c4" d="M19.286 0h-18.571c-0.429 0-0.714 0.286-0.714 0.714v7.143c0 0.429 0.286 0.714 0.714 0.714h18.571c0.429 0 0.714-0.286 0.714-0.714v-7.143c0-0.429-0.286-0.714-0.714-0.714zM8.571 6.429v-4.286l4.286 2.143-4.286 2.143zM19.286 11.429h-18.571c-0.429 0-0.714 0.286-0.714 0.714v7.143c0 0.429 0.286 0.714 0.714 0.714h18.571c0.429 0 0.714-0.286 0.714-0.714v-7.143c0-0.429-0.286-0.714-0.714-0.714zM8.571 17.857v-4.286l4.286 2.143-4.286 2.143z"></path>
</svg>
