<!-- Generated by IcoMoon.io -->
<svg version="1.1" xmlns="http://www.w3.org/2000/svg" width="20" height="20" viewBox="0 0 20 20">
<title>icon-schedule-auto-reminder</title>
<path fill="#a8aaad" d="M18.571 1.429v17.143h-17.143v-17.143h17.143zM19.286 0h-18.571c-0.429 0-0.714 0.286-0.714 0.714v18.571c0 0.429 0.286 0.714 0.714 0.714h18.571c0.429 0 0.714-0.286 0.714-0.714v-18.571c0-0.429-0.286-0.714-0.714-0.714v0zM12.857 8.571c-0.286-0.286-0.714-0.286-1 0l-1.857 1.857v-5.429c0-0.429-0.286-0.714-0.714-0.714s-0.714 0.286-0.714 0.714v7.143c0 0 0 0 0 0 0 0.143 0 0.143 0 0.286 0.143 0.143 0.286 0.286 0.429 0.429 0.143 0 0.429 0 0.571 0s0.143-0.143 0.286-0.143l3-3.143c0.286-0.286 0.286-0.714 0-1z"></path>
</svg>
