<!-- Generated by IcoMoon.io -->
<svg version="1.1" xmlns="http://www.w3.org/2000/svg" width="20" height="20" viewBox="0 0 20 20">
<title>icon-design-critique</title>
<path fill="#c4c4c4" d="M18.571 1.429v17.143h-17.143v-17.143h17.143zM19.286 0h-18.571c-0.429 0-0.714 0.286-0.714 0.714v18.571c0 0.429 0.286 0.714 0.714 0.714h18.571c0.429 0 0.714-0.286 0.714-0.714v-18.571c0-0.429-0.286-0.714-0.714-0.714v0zM15.714 4.286h-8.571v1.429h8.571v-1.429zM15.714 7.143h-8.571v1.429h8.571v-1.429zM15.714 10h-8.571v1.429h8.571v-1.429zM15.714 14.286h-2.857v1.429h2.857v-1.429zM4.286 7.143c0.857 0 1.429-0.571 1.429-1.429s-0.571-1.429-1.429-1.429-1.429 0.571-1.429 1.429 0.571 1.429 1.429 1.429z"></path>
</svg>
