<!-- Generated by IcoMoon.io -->
<svg version="1.1" xmlns="http://www.w3.org/2000/svg" width="20" height="20" viewBox="0 0 20 20">
<title>icon-email-for-approval</title>
<path fill="#c4c4c4" d="M16.714 13.286l-2.286 2.714c-0.286 0.286-0.714 0.429-1 0.143l-1.571-1.429 1-1.143 1.143 0.857 1.714-2.143 1 1zM20 0.714v18.571c0 0.429-0.286 0.714-0.714 0.714h-18.571c-0.429 0-0.714-0.286-0.714-0.714v-18.571c0-0.429 0.286-0.714 0.714-0.714h18.571c0.429 0 0.714 0.286 0.714 0.714zM10 7.429c0 0 0 0 0 0 0.143 0 0.286 0 0.286-0.143 0 0 0 0 0 0l5.714-3.429c0.286-0.143 0.429-0.571 0.286-1-0.143-0.286-0.571-0.429-1-0.286l-5.286 3.286-5.286-3.143c-0.429-0.286-0.857-0.143-1 0.143-0.286 0.429-0.143 0.857 0.143 1l5.714 3.429c0 0 0 0 0 0 0.143 0.143 0.286 0.143 0.429 0.143 0 0 0 0 0 0v0 0zM18.571 14.286c0-2.286-1.857-4.286-4.286-4.286-2.286 0-4.286 1.857-4.286 4.286 0 2.286 1.857 4.286 4.286 4.286 2.286 0 4.286-1.857 4.286-4.286z"></path>
</svg>
