<!-- Generated by IcoMoon.io -->
<svg version="1.1" xmlns="http://www.w3.org/2000/svg" width="20" height="20" viewBox="0 0 20 20">
<title>icon-save-as-email-template-2</title>
<path fill="#a8aaad" d="M8.571 18.571h-7.143v-17.143h7.143v-1.429h-7.857c-0.429 0-0.714 0.286-0.714 0.714v18.571c0 0.429 0.286 0.714 0.714 0.714h7.857v-1.429z"></path>
<path fill="#a8aaad" d="M10.714 1.429v0c-0.429 0-0.714-0.286-0.714-0.714v0c0-0.429 0.286-0.714 0.714-0.714v0c0.429 0 0.714 0.286 0.714 0.714v0c0 0.429-0.286 0.714-0.714 0.714z"></path>
<path fill="#a8aaad" d="M13.571 1.429v0c-0.429 0-0.714-0.286-0.714-0.714v0c0-0.429 0.286-0.714 0.714-0.714v0c0.429 0 0.714 0.286 0.714 0.714v0c0 0.429-0.286 0.714-0.714 0.714z"></path>
<path fill="#a8aaad" d="M16.429 1.429v0c-0.429 0-0.714-0.286-0.714-0.714v0c0-0.429 0.286-0.714 0.714-0.714v0c0.429 0 0.714 0.286 0.714 0.714v0c0 0.429-0.286 0.714-0.714 0.714z"></path>
<path fill="#a8aaad" d="M19.286 1.429v0c-0.429 0-0.714-0.286-0.714-0.714v0c0-0.429 0.286-0.714 0.714-0.714v0c0.429 0 0.714 0.286 0.714 0.714v0c0 0.429-0.286 0.714-0.714 0.714z"></path>
<path fill="#a8aaad" d="M10.714 20v0c-0.429 0-0.714-0.286-0.714-0.714v0c0-0.429 0.286-0.714 0.714-0.714v0c0.429 0 0.714 0.286 0.714 0.714v0c0 0.429-0.286 0.714-0.714 0.714z"></path>
<path fill="#a8aaad" d="M13.571 20v0c-0.429 0-0.714-0.286-0.714-0.714v0c0-0.429 0.286-0.714 0.714-0.714v0c0.429 0 0.714 0.286 0.714 0.714v0c0 0.429-0.286 0.714-0.714 0.714z"></path>
<path fill="#a8aaad" d="M16.429 20v0c-0.429 0-0.714-0.286-0.714-0.714v0c0-0.429 0.286-0.714 0.714-0.714v0c0.429 0 0.714 0.286 0.714 0.714v0c0 0.429-0.286 0.714-0.714 0.714z"></path>
<path fill="#a8aaad" d="M19.286 20v0c-0.429 0-0.714-0.286-0.714-0.714v0c0-0.429 0.286-0.714 0.714-0.714v0c0.429 0 0.714 0.286 0.714 0.714v0c0 0.429-0.286 0.714-0.714 0.714z"></path>
<path fill="#a8aaad" d="M20 13.571v0c0 0.429-0.286 0.714-0.714 0.714v0c-0.429 0-0.714-0.286-0.714-0.714v0c0-0.429 0.286-0.714 0.714-0.714v0c0.429 0 0.714 0.286 0.714 0.714z"></path>
<path fill="#a8aaad" d="M20 10.714v0c0 0.429-0.286 0.714-0.714 0.714v0c-0.429 0-0.714-0.286-0.714-0.714v0c0-0.429 0.286-0.714 0.714-0.714v0c0.429 0 0.714 0.286 0.714 0.714z"></path>
<path fill="#a8aaad" d="M20 16.429v0c0 0.429-0.286 0.714-0.714 0.714v0c-0.429 0-0.714-0.286-0.714-0.714v0c0-0.429 0.286-0.714 0.714-0.714v0c0.429 0 0.714 0.286 0.714 0.714z"></path>
<path fill="#a8aaad" d="M20 7.857v0c0 0.429-0.286 0.714-0.714 0.714v0c-0.429 0-0.714-0.286-0.714-0.714v0c0-0.429 0.286-0.714 0.714-0.714v0c0.429 0 0.714 0.286 0.714 0.714z"></path>
<path fill="#a8aaad" d="M20 5v0c0 0.429-0.286 0.714-0.714 0.714v0c-0.429 0-0.714-0.286-0.714-0.714v0c0-0.429 0.286-0.714 0.714-0.714v0c0.429 0 0.714 0.286 0.714 0.714z"></path>
<path fill="#a8aaad" d="M10.143 8.857v0c0 0 0 0 0 0-0.143 0-0.286 0-0.286-0.143 0 0 0 0 0 0l-5.714-3.429c-0.429-0.143-0.571-0.571-0.429-1 0.143-0.286 0.571-0.429 1-0.286l5.286 3.286 5.286-3.286c0.286-0.143 0.714-0.143 1 0.286 0.143 0.286 0.143 0.714-0.286 1l-5.714 3.429c0 0 0 0 0 0 0.143 0.143 0 0.143-0.143 0.143 0 0 0 0 0 0v0z"></path>
</svg>
