<!-- Generated by IcoMoon.io -->
<svg version="1.1" xmlns="http://www.w3.org/2000/svg" width="20" height="20" viewBox="0 0 20 20">
<title>icon-team-settings</title>
<path fill="#c4c4c4" d="M19 8.571h-0.857c-0.286-1.429-0.714-2.286-1.286-3.143l0.571-0.714c0.286-0.286 0.286-0.714 0-1l-1.286-1.429c-0.286-0.286-0.714-0.286-1 0l-0.571 0.571c-1-0.571-1.714-1-3.143-1.286v-0.857c0-0.429-0.286-0.714-0.714-0.714h-1.857c-0.429 0-0.286 0.286-0.286 0.714v0.857c-1.429 0.286-2.429 0.714-3.286 1.286l-0.714-0.571c-0.286-0.286-0.857-0.286-1.143 0l-1.429 1.286c-0.286 0.286-0.286 0.714 0 1l0.571 0.714c-0.571 1-1 1.857-1.143 3.286h-1c-0.286 0-0.429 0.143-0.429 0.571v1.857c0 0.429 0.143 0.429 0.429 0.429h1c0.286 1.429 0.714 2.286 1.286 3.286l-0.571 0.714c-0.286 0.286-0.286 0.714 0 1l1.286 1.429c0.286 0.286 0.714 0.286 1 0l0.857-0.714c0.857 0.714 1.857 1.143 3.286 1.286v0.857c0 0.429-0.143 0.714 0.286 0.714h1.857c0.429 0 0.714-0.286 0.714-0.714v-0.857c1.429-0.286 2.143-0.714 3.143-1.286l0.571 0.571c0.286 0.286 0.714 0.286 1 0l1.286-1.286c0.286-0.286 0.286-0.714 0-1l-0.571-0.714c0.714-1 1.143-1.857 1.286-3.286h0.857c0.429 0 1 0 1-0.429v-1.857c0-0.429-0.571-0.571-1-0.571zM5.714 14.143c-2.143-2.286-2.143-5.857 0-8.143 2.286-2.286 5.857-2.286 8.143 0s2.286 5.857 0 8.143c-2.286 2.143-5.857 2.143-8.143 0z"></path>
<path fill="#c4c4c4" d="M9.143 8.143h-2v-1h5.143v1h-2v5.714h-1.143v-5.714z"></path>
</svg>
