<!-- Generated by IcoMoon.io -->
<svg version="1.1" xmlns="http://www.w3.org/2000/svg" width="22" height="20" viewBox="0 0 22 20">
<title>icon-change-project-group-3</title>
<path fill="#a7a9ac" d="M13.077 12.308h-6.923v-0.769c0-0.462-0.308-0.769-0.769-0.769h-4.615c-0.462 0-0.769 0.308-0.769 0.769v7.692c0 0.462 0.308 0.769 0.769 0.769h12.308c0.462 0 0.769-0.308 0.769-0.769v-6.154c0-0.462-0.308-0.769-0.769-0.769z"></path>
<path fill="#a7a9ac" d="M20.769 1.538h-6.923v-0.769c0-0.462-0.308-0.769-0.769-0.769h-4.615c-0.462 0-0.769 0.308-0.769 0.769v7.692c0 0.462 0.308 0.769 0.769 0.769h12.308c0.462 0 0.769-0.308 0.769-0.769v-6.154c0-0.462-0.308-0.769-0.769-0.769zM10 7.692c-0.462 0-0.769-0.308-0.769-0.769s0.308-0.769 0.769-0.769 0.769 0.308 0.769 0.769c0 0.462-0.308 0.769-0.769 0.769zM10 4.615c-0.462 0-0.769-0.308-0.769-0.769s0.308-0.769 0.769-0.769 0.769 0.308 0.769 0.769c0 0.462-0.308 0.769-0.769 0.769zM14.615 7.692c-0.462 0-0.769-0.308-0.769-0.769s0.308-0.769 0.769-0.769 0.769 0.308 0.769 0.769c0 0.462-0.308 0.769-0.769 0.769zM14.615 4.615c-0.462 0-0.769-0.308-0.769-0.769s0.308-0.769 0.769-0.769 0.769 0.308 0.769 0.769c0 0.462-0.308 0.769-0.769 0.769zM19.231 7.692c-0.462 0-0.769-0.308-0.769-0.769s0.308-0.769 0.769-0.769 0.769 0.308 0.769 0.769c0 0.462-0.308 0.769-0.769 0.769zM19.231 4.615c-0.462 0-0.769-0.308-0.769-0.769s0.308-0.769 0.769-0.769 0.769 0.308 0.769 0.769c0 0.462-0.308 0.769-0.769 0.769z"></path>
</svg>
