<!-- Generated by IcoMoon.io -->
<svg version="1.1" xmlns="http://www.w3.org/2000/svg" width="20" height="20" viewBox="0 0 20 20">
<title>icon-wireframe</title>
<path fill="#c4c4c4" d="M19.286 0h-18.571c-0.429 0-0.714 0.286-0.714 0.714v18.571c0 0.429 0.286 0.714 0.714 0.714h18.571c0.429 0 0.714-0.286 0.714-0.714v-18.571c0-0.429-0.286-0.714-0.714-0.714zM8.571 2.143c0 0.429-0.286 0.714-0.714 0.714s-0.714-0.286-0.714-0.714c0-0.429 0.286-0.714 0.714-0.714s0.714 0.286 0.714 0.714zM5.714 2.143c0 0.429-0.286 0.714-0.714 0.714s-0.714-0.286-0.714-0.714c0-0.429 0.286-0.714 0.714-0.714s0.714 0.286 0.714 0.714zM2.143 1.429c0.429 0 0.714 0.286 0.714 0.714s-0.286 0.714-0.714 0.714-0.714-0.286-0.714-0.714c0-0.429 0.286-0.714 0.714-0.714zM18.571 18.571h-17.143v-14.286h17.143v14.286zM15 10h-10c-0.429 0-0.714-0.286-0.714-0.714v-2.857c0-0.429 0.286-0.714 0.714-0.714h10c0.429 0 0.714 0.286 0.714 0.714v2.857c0 0.429-0.286 0.714-0.714 0.714zM15 12.857h-10c-0.429 0-0.714-0.286-0.714-0.714v0c0-0.429 0.286-0.714 0.714-0.714h10c0.429 0 0.714 0.286 0.714 0.714v0c0 0.429-0.286 0.714-0.714 0.714zM15 15.714h-10c-0.429 0-0.714-0.286-0.714-0.714v0c0-0.429 0.286-0.714 0.714-0.714h10c0.429 0 0.714 0.286 0.714 0.714v0c0 0.429-0.286 0.714-0.714 0.714z"></path>
</svg>
