<!-- Generated by IcoMoon.io -->
<svg version="1.1" xmlns="http://www.w3.org/2000/svg" width="20" height="20" viewBox="0 0 20 20">
<title>icon-save-as-email-template</title>
<path fill="#a8aaad" d="M20 0h-1.429v2.857h1.429v-2.857zM17.143 0h-1.429v1.429h1.429v-1.429zM14.286 0h-1.429v1.429h1.429v-1.429zM11.429 0h-1.429v1.429h1.429v-1.429zM8.571 0h-1.429v1.429h1.429v-1.429zM5.714 0h-1.429v1.429h1.429v-1.429zM2.857 0h-2.857v1.429h2.857v-1.429zM1.429 2.857h-1.429v1.429h1.429v-1.429zM1.429 5.714h-1.429v1.429h1.429v-1.429zM1.429 8.571h-1.429v1.429h1.429v-1.429zM1.429 11.429h-1.429v1.429h1.429v-1.429zM1.429 14.286h-1.429v1.429h1.429v-1.429zM1.429 17.143h-1.429v2.857h1.429v-2.857zM4.286 18.571h-1.429v1.429h1.429v-1.429zM7.143 18.571h-1.429v1.429h1.429v-1.429zM10 18.571h-1.429v1.429h1.429v-1.429zM12.857 18.571h-1.429v1.429h1.429v-1.429zM15.714 18.571h-1.429v1.429h1.429v-1.429zM18.571 18.571h-1.429v1.429h1.429v-1.429zM20 18.571h-1.429v1.429h1.429v-1.429zM20 15.714h-1.429v1.429h1.429v-1.429zM20 12.857h-1.429v1.429h1.429v-1.429zM20 10h-1.429v1.429h1.429v-1.429zM20 7.143h-1.429v1.429h1.429v-1.429zM20 4.286h-1.429v1.429h1.429v-1.429z"></path>
<path fill="#a8aaad" d="M8.571 18.571h-7.143v-17.143h7.143v-1.429h-7.857c-0.429 0-0.714 0.286-0.714 0.714v18.571c0 0.429 0.286 0.714 0.714 0.714h7.857v-1.429z"></path>
<path fill="#a8aaad" d="M10.286 8.857v0c0 0 0 0 0 0-0.143 0-0.286 0-0.286-0.143 0 0 0 0 0 0l-5.714-3.429c-0.429-0.143-0.429-0.571-0.286-1 0.143-0.286 0.571-0.429 1-0.286l5.286 3.286 5.429-3.143c0.286-0.143 0.714-0.143 1 0.286 0.143 0.286 0.143 0.714-0.286 1l-5.714 3.429c0 0 0 0 0 0-0.143 0-0.286 0-0.429 0 0 0 0 0 0 0v0z"></path>
</svg>
