<!-- Generated by IcoMoon.io -->
<svg version="1.1" xmlns="http://www.w3.org/2000/svg" width="19" height="20" viewBox="0 0 19 20">
<title>icon-calendar</title>
<path fill="#c4c4c4" d="M17.857 1.429h-17.143c-0.429 0-0.714 0.286-0.714 0.714v17.143c0 0.429 0.286 0.714 0.714 0.714h17.143c0.429 0 0.714-0.286 0.714-0.714v-17.143c0-0.429-0.286-0.714-0.714-0.714zM5.714 11.429h2.857v2.857h-2.857v-2.857zM4.286 14.286h-2.857v-2.857h2.857v2.857zM10 10v-2.857h2.857v2.857h-2.857zM8.571 10h-2.857v-2.857h2.857v2.857zM4.286 10h-2.857v-2.857h2.857v2.857zM1.429 18.571v-2.857h2.857v2.857h-2.857zM5.714 18.571v-2.857h2.857v2.857h-2.857zM10 18.571v-2.857h2.857v2.857h-2.857zM17.143 18.571h-2.857v-2.857h2.857v2.857zM17.143 14.286h-2.857v-2.857h2.857v2.857zM17.143 10h-2.857v-2.857h2.857v2.857zM17.143 5.714h-15.714v-2.857h15.714v2.857zM5.714 1.429h-1.429v-1.429h1.429v1.429zM14.286 1.429h-1.429v-1.429h1.429v1.429z"></path>
</svg>
