<!-- Generated by IcoMoon.io -->
<svg version="1.1" xmlns="http://www.w3.org/2000/svg" width="20" height="20" viewBox="0 0 20 20">
<title>icon-change-project-group-2</title>
<path fill="#c4c4c4" d="M19.286 8.571h-7.857v-0.714c0-0.429-0.286-0.714-0.714-0.714h-4.286c-0.429 0-0.714 0.286-0.714 0.714v11.429c0 0.429 0.286 0.714 0.714 0.714h12.857c0.429 0 0.714-0.286 0.714-0.714v-10c0-0.429-0.286-0.714-0.714-0.714zM1.429 11.429v-8.571h3.571c0 0 0 0 0.143 0h7.714v4.286h1.429v-5c0-0.429-0.286-0.714-0.714-0.714h-7.857v-0.714c0-0.429-0.286-0.714-0.714-0.714h-4.286c-0.429 0-0.714 0.286-0.714 0.714v11.429c0 0.429 0.286 0.714 0.714 0.714h3.571v-1.429h-2.857z"></path>
</svg>
