<!-- Generated by IcoMoon.io -->
<svg version="1.1" xmlns="http://www.w3.org/2000/svg" width="20" height="20" viewBox="0 0 20 20">
<title>icon-change-project-group</title>
<path fill="#c4c4c4" d="M14.286 2.143v5h-1.429v-4.286h-7.714c0 0 0 0-0.143 0h-3.571v8.571h2.857v1.429h-3.571c-0.429 0-0.714-0.286-0.714-0.714v-11.429c0-0.429 0.286-0.714 0.714-0.714h4.286c0.429 0 0.714 0.286 0.714 0.714v0.714h7.857c0.429 0 0.714 0.286 0.714 0.714zM14.286 8.571v0 0 0zM20 9.286v9.857c0 0.429-0.286 0.714-0.714 0.714h-12.857c-0.429 0.143-0.714-0.143-0.714-0.571v-11.429c0-0.429 0.286-0.714 0.714-0.714h4.286c0.429 0 0.714 0.286 0.714 0.714v0.714h7.857c0.429 0 0.714 0.286 0.714 0.714zM10 18.571l-2.857-2.857v2.857h2.857zM14.143 18.571l-7-7v2l5 5h2zM18.143 18.571l-8.571-8.571h-2l8.571 8.571h2zM18.571 15l-5-5h-2l7 7v-2zM18.571 10h-2.857l2.857 2.857v-2.857z"></path>
</svg>
