<!-- Generated by IcoMoon.io -->
<svg version="1.1" xmlns="http://www.w3.org/2000/svg" width="20" height="20" viewBox="0 0 20 20">
<title>icon-email-preview</title>
<path fill="#c4c4c4" d="M0 18l2 2h-1.286c-0.429 0-0.714-0.286-0.714-0.714v-1.286zM20 9.714v9.571c0 0.429-0.286 0.714-0.714 0.714h-17.286l-2-2v-8.286l2.857-2.857v-2.571h2.571l4.143-4.143c0-0.143 0.286-0.143 0.429-0.143s0.429 0 0.571 0.143l1.143 1.286 2.857 2.857h2.571v2.571l2.857 2.857zM17.143 10h1.143l-1.143-1.143v1.143zM7.429 4.286h5.143l-2.571-2.571-2.571 2.571zM1.714 10h1.143v-1.143l-1.143 1.143zM18.571 11.429h-17.143v7.143h17.143v-7.143z"></path>
</svg>
